<svg xmlns="http://www.w3.org/2000/svg" xmlns:xlink="http://www.w3.org/1999/xlink" viewBox="0 0 600 600" width="600" height="600" preserveAspectRatio="xMidYMid meet" style="width: 100%; height: 100%; transform: translate3d(0px, 0px, 0px); content-visibility: visible;"><defs><clipPath id="__lottie_element_2"><rect width="600" height="600" x="0" y="0"></rect></clipPath><linearGradient id="__lottie_element_7" spreadMethod="pad" gradientUnits="userSpaceOnUse" x1="-25.742000579833984" y1="-14.888999938964844" x2="25.753999710083008" y2="14.86299991607666"><stop offset="0%" stop-color="rgb(98,92,246)"></stop><stop offset="31%" stop-color="rgb(103,67,241)"></stop><stop offset="63%" stop-color="rgb(107,41,237)"></stop><stop offset="81%" stop-color="rgb(103,67,241)"></stop><stop offset="100%" stop-color="rgb(98,92,246)"></stop></linearGradient><linearGradient id="__lottie_element_11" spreadMethod="pad" gradientUnits="userSpaceOnUse" x1="25.764999389648438" y1="-14.843999862670898" x2="-25.753999710083008" y2="14.866999626159668"><stop offset="0%" stop-color="rgb(98,92,246)"></stop><stop offset="31%" stop-color="rgb(103,67,241)"></stop><stop offset="63%" stop-color="rgb(107,41,237)"></stop><stop offset="81%" stop-color="rgb(103,67,241)"></stop><stop offset="100%" stop-color="rgb(98,92,246)"></stop></linearGradient><linearGradient id="__lottie_element_15" spreadMethod="pad" gradientUnits="userSpaceOnUse" x1="-0.028999999165534973" y1="29.73699951171875" x2="-0.004000000189989805" y2="-29.733999252319336"><stop offset="0%" stop-color="rgb(98,92,246)"></stop><stop offset="31%" stop-color="rgb(103,67,241)"></stop><stop offset="63%" stop-color="rgb(107,41,237)"></stop><stop offset="81%" stop-color="rgb(103,67,241)"></stop><stop offset="100%" stop-color="rgb(98,92,246)"></stop></linearGradient><linearGradient id="__lottie_element_19" spreadMethod="pad" gradientUnits="userSpaceOnUse" x1="-0.028999999165534973" y1="29.73699951171875" x2="-0.004000000189989805" y2="-29.733999252319336"><stop offset="0%" stop-color="rgb(98,92,246)"></stop><stop offset="31%" stop-color="rgb(103,67,241)"></stop><stop offset="63%" stop-color="rgb(107,41,237)"></stop><stop offset="81%" stop-color="rgb(103,67,241)"></stop><stop offset="100%" stop-color="rgb(98,92,246)"></stop></linearGradient><linearGradient id="__lottie_element_23" spreadMethod="pad" gradientUnits="userSpaceOnUse" x1="-11.4350004196167" y1="-7.126999855041504" x2="19.576000213623047" y2="-24.389999389648438"><stop offset="0%" stop-color="rgb(178,174,251)"></stop><stop offset="5%" stop-color="rgb(217,215,253)"></stop><stop offset="25%" stop-color="rgb(255,255,255)"></stop></linearGradient><linearGradient id="__lottie_element_27" spreadMethod="pad" gradientUnits="userSpaceOnUse" x1="-11.4350004196167" y1="-7.126999855041504" x2="19.576000213623047" y2="-24.389999389648438"><stop offset="0%" stop-color="rgb(178,174,251)"></stop><stop offset="5%" stop-color="rgb(217,215,253)"></stop><stop offset="25%" stop-color="rgb(255,255,255)"></stop></linearGradient><linearGradient id="__lottie_element_31" spreadMethod="pad" gradientUnits="userSpaceOnUse" x1="-11.4350004196167" y1="-7.126999855041504" x2="19.576000213623047" y2="-24.389999389648438"><stop offset="0%" stop-color="rgb(178,174,251)"></stop><stop offset="5%" stop-color="rgb(217,215,253)"></stop><stop offset="25%" stop-color="rgb(255,255,255)"></stop></linearGradient><linearGradient id="__lottie_element_35" spreadMethod="pad" gradientUnits="userSpaceOnUse" x1="-218.11700439453125" y1="-126.23500061035156" x2="218.23599243164062" y2="125.93399810791016"><stop offset="0%" stop-color="rgb(98,92,246)"></stop><stop offset="31%" stop-color="rgb(103,67,241)"></stop><stop offset="63%" stop-color="rgb(107,41,237)"></stop><stop offset="81%" stop-color="rgb(103,67,241)"></stop><stop offset="100%" stop-color="rgb(98,92,246)"></stop></linearGradient><linearGradient id="__lottie_element_39" spreadMethod="pad" gradientUnits="userSpaceOnUse" x1="218.3780059814453" y1="-125.69100189208984" x2="-218.20899963378906" y2="126.0739974975586"><stop offset="0%" stop-color="rgb(98,92,246)"></stop><stop offset="31%" stop-color="rgb(103,67,241)"></stop><stop offset="63%" stop-color="rgb(107,41,237)"></stop><stop offset="81%" stop-color="rgb(103,67,241)"></stop><stop offset="100%" stop-color="rgb(98,92,246)"></stop></linearGradient><linearGradient id="__lottie_element_43" spreadMethod="pad" gradientUnits="userSpaceOnUse" x1="-0.2240000069141388" y1="252.09100341796875" x2="-0.07599999755620956" y2="-251.9949951171875"><stop offset="0%" stop-color="rgb(98,92,246)"></stop><stop offset="31%" stop-color="rgb(103,67,241)"></stop><stop offset="63%" stop-color="rgb(107,41,237)"></stop><stop offset="81%" stop-color="rgb(103,67,241)"></stop><stop offset="100%" stop-color="rgb(98,92,246)"></stop></linearGradient></defs><g clip-path="url(#__lottie_element_2)"><g transform="matrix(-0.5774679780006409,-1.0002039670944214,1.0002039670944214,-0.5774679780006409,2843.0068359375,4510.373046875)" opacity="1" style="display: block;"><g opacity="1" transform="matrix(1,0,0,1,4258.10009765625,-84.09300231933594)"><path fill="url(#__lottie_element_43)" fill-opacity="1" d=" M187.16200256347656,-60.0890007019043 C187.16200256347656,-60.0890007019043 218.33200073242188,-114.06900024414062 218.33200073242188,-114.06900024414062 C219.40199279785156,-115.91899871826172 219.9409942626953,-117.9990005493164 219.9409942626953,-120.06900024414062 C219.9409942626953,-122.13899993896484 219.40199279785156,-124.21900177001953 218.33200073242188,-126.06900024414062 C218.33200073242188,-126.06900024414062 183.6909942626953,-186.06900024414062 183.6909942626953,-186.06900024414062 C182.62100219726562,-187.91900634765625 181.1009979248047,-189.4199981689453 179.30099487304688,-190.4600067138672 C177.51100158691406,-191.5 175.4409942626953,-192.06900024414062 173.30099487304688,-192.06900024414062 C173.30099487304688,-192.06900024414062 -110.8270034790039,-191.94900512695312 -110.8270034790039,-191.94900512695312 C-110.8270034790039,-191.94900512695312 -145.38900756835938,-132.08900451660156 -145.38900756835938,-132.08900451660156 C-145.38900756835938,-132.08900451660156 -122.00900268554688,-0.017000000923871994 -122.00900268554688,-0.017000000923871994 C-122.00900268554688,-0.017000000923871994 187.16200256347656,-60.0890007019043 187.16200256347656,-60.0890007019043z M41.8129997253418,-192.25100708007812 C41.8129997253418,-192.25100708007812 10.633000373840332,-246.25100708007812 10.633000373840332,-246.25100708007812 C8.493000030517578,-249.96099853515625 4.5329999923706055,-252.25100708007812 0.24300000071525574,-252.25100708007812 C0.24300000071525574,-252.25100708007812 -69.03700256347656,-252.25100708007812 -69.03700256347656,-252.25100708007812 C-71.177001953125,-252.25100708007812 -73.23699951171875,-251.68099975585938 -75.0270004272461,-250.64100646972656 C-76.8270034790039,-249.6009979248047 -78.34700012207031,-248.1009979248047 -79.427001953125,-246.25100708007812 C-79.427001953125,-246.25100708007812 -110.93399810791016,-191.6820068359375 -110.93399810791016,-191.6820068359375 C-110.93399810791016,-191.6820068359375 -145.23699951171875,-132.27099609375 -145.23699951171875,-132.27099609375 C-145.23699951171875,-132.27099609375 41.8129997253418,-192.25100708007812 41.8129997253418,-192.25100708007812z"></path></g></g><g transform="matrix(-0.5774679780006409,-1.0002039670944214,1.0002039670944214,-0.5774679780006409,2843.0068359375,4510.373046875)" opacity="1" style="display: block;"><g opacity="1" transform="matrix(-0.5,0.8660253882408142,-0.8660253882408142,-0.5,4258.10009765625,-84.09300231933594)"><path fill="url(#__lottie_element_39)" fill-opacity="1" d=" M187.16200256347656,-60.0890007019043 C187.16200256347656,-60.0890007019043 218.33200073242188,-114.06900024414062 218.33200073242188,-114.06900024414062 C219.40199279785156,-115.91899871826172 219.9409942626953,-117.9990005493164 219.9409942626953,-120.06900024414062 C219.9409942626953,-122.13899993896484 219.40199279785156,-124.21900177001953 218.33200073242188,-126.06900024414062 C218.33200073242188,-126.06900024414062 183.6909942626953,-186.06900024414062 183.6909942626953,-186.06900024414062 C182.62100219726562,-187.91900634765625 181.1009979248047,-189.4199981689453 179.30099487304688,-190.4600067138672 C177.51100158691406,-191.5 175.4409942626953,-192.06900024414062 173.30099487304688,-192.06900024414062 C173.30099487304688,-192.06900024414062 -110.8270034790039,-191.94900512695312 -110.8270034790039,-191.94900512695312 C-110.8270034790039,-191.94900512695312 -145.38900756835938,-132.08900451660156 -145.38900756835938,-132.08900451660156 C-145.38900756835938,-132.08900451660156 -122.00900268554688,-0.017000000923871994 -122.00900268554688,-0.017000000923871994 C-122.00900268554688,-0.017000000923871994 187.16200256347656,-60.0890007019043 187.16200256347656,-60.0890007019043z M41.8129997253418,-192.25100708007812 C41.8129997253418,-192.25100708007812 10.633000373840332,-246.25100708007812 10.633000373840332,-246.25100708007812 C8.493000030517578,-249.96099853515625 4.5329999923706055,-252.25100708007812 0.24300000071525574,-252.25100708007812 C0.24300000071525574,-252.25100708007812 -69.03700256347656,-252.25100708007812 -69.03700256347656,-252.25100708007812 C-71.177001953125,-252.25100708007812 -73.23699951171875,-251.68099975585938 -75.0270004272461,-250.64100646972656 C-76.8270034790039,-249.6009979248047 -78.34700012207031,-248.1009979248047 -79.427001953125,-246.25100708007812 C-79.427001953125,-246.25100708007812 -110.93399810791016,-191.6820068359375 -110.93399810791016,-191.6820068359375 C-110.93399810791016,-191.6820068359375 -145.23699951171875,-132.27099609375 -145.23699951171875,-132.27099609375 C-145.23699951171875,-132.27099609375 41.8129997253418,-192.25100708007812 41.8129997253418,-192.25100708007812z"></path></g></g><g transform="matrix(1.1549359560012817,0,0,1.1549359560012817,-4617.8525390625,397.0877380371094)" opacity="1" style="display: block;"><g opacity="1" transform="matrix(-0.5,0.8660253882408142,-0.8660253882408142,-0.5,4258.10009765625,-84.09300231933594)"><path fill="url(#__lottie_element_35)" fill-opacity="1" d=" M187.16200256347656,-60.0890007019043 C187.16200256347656,-60.0890007019043 218.33200073242188,-114.06900024414062 218.33200073242188,-114.06900024414062 C219.40199279785156,-115.91899871826172 219.9409942626953,-117.9990005493164 219.9409942626953,-120.06900024414062 C219.9409942626953,-122.13899993896484 219.40199279785156,-124.21900177001953 218.33200073242188,-126.06900024414062 C218.33200073242188,-126.06900024414062 183.6909942626953,-186.06900024414062 183.6909942626953,-186.06900024414062 C182.62100219726562,-187.91900634765625 181.1009979248047,-189.4199981689453 179.30099487304688,-190.4600067138672 C177.51100158691406,-191.5 175.4409942626953,-192.06900024414062 173.30099487304688,-192.06900024414062 C173.30099487304688,-192.06900024414062 -110.8270034790039,-191.94900512695312 -110.8270034790039,-191.94900512695312 C-110.8270034790039,-191.94900512695312 -145.38900756835938,-132.08900451660156 -145.38900756835938,-132.08900451660156 C-145.38900756835938,-132.08900451660156 -122.00900268554688,-0.017000000923871994 -122.00900268554688,-0.017000000923871994 C-122.00900268554688,-0.017000000923871994 187.16200256347656,-60.0890007019043 187.16200256347656,-60.0890007019043z M41.8129997253418,-192.25100708007812 C41.8129997253418,-192.25100708007812 10.633000373840332,-246.25100708007812 10.633000373840332,-246.25100708007812 C8.493000030517578,-249.96099853515625 4.5329999923706055,-252.25100708007812 0.24300000071525574,-252.25100708007812 C0.24300000071525574,-252.25100708007812 -69.03700256347656,-252.25100708007812 -69.03700256347656,-252.25100708007812 C-71.177001953125,-252.25100708007812 -73.23699951171875,-251.68099975585938 -75.0270004272461,-250.64100646972656 C-76.8270034790039,-249.6009979248047 -78.34700012207031,-248.1009979248047 -79.427001953125,-246.25100708007812 C-79.427001953125,-246.25100708007812 -110.93399810791016,-191.6820068359375 -110.93399810791016,-191.6820068359375 C-110.93399810791016,-191.6820068359375 -145.23699951171875,-132.27099609375 -145.23699951171875,-132.27099609375 C-145.23699951171875,-132.27099609375 41.8129997253418,-192.25100708007812 41.8129997253418,-192.25100708007812z"></path></g></g><g transform="matrix(-4.893350124359131,-8.475530624389648,8.475530624389648,-4.893350124359131,300,300)" opacity="1" style="display: block;"><g opacity="1" transform="matrix(1,0,0,1,0,0)"><path fill="url(#__lottie_element_31)" fill-opacity="1" d=" M-16.312999725341797,-14.13599967956543 C-16.312999725341797,-14.13599967956543 -8.152999877929688,-28.257999420166016 -8.152999877929688,-28.257999420166016 C-8.152999877929688,-28.257999420166016 -4.079999923706055,-21.20400047302246 -4.079999923706055,-21.20400047302246 C-4.079999923706055,-21.20400047302246 -8.163000106811523,-14.133000373840332 -8.163000106811523,-14.133000373840332 C-8.163000106811523,-14.133000373840332 24.5,-14.125 24.5,-14.125 C24.5,-14.125 20.398000717163086,-7.059000015258789 20.398000717163086,-7.059000015258789 C20.398000717163086,-7.059000015258789 -12.229999542236328,-7.065000057220459 -12.229999542236328,-7.065000057220459 C-12.229999542236328,-7.065000057220459 -16.312999725341797,-14.13599967956543 -16.312999725341797,-14.13599967956543z"></path></g></g><g transform="matrix(9.786700248718262,0,0,9.786700248718262,300,300)" opacity="1" style="display: block;"><g opacity="1" transform="matrix(1,0,0,1,0,0)"><path fill="url(#__lottie_element_27)" fill-opacity="1" d=" M-16.312999725341797,-14.13599967956543 C-16.312999725341797,-14.13599967956543 -8.152999877929688,-28.257999420166016 -8.152999877929688,-28.257999420166016 C-8.152999877929688,-28.257999420166016 -4.079999923706055,-21.20400047302246 -4.079999923706055,-21.20400047302246 C-4.079999923706055,-21.20400047302246 -8.163000106811523,-14.133000373840332 -8.163000106811523,-14.133000373840332 C-8.163000106811523,-14.133000373840332 24.5,-14.125 24.5,-14.125 C24.5,-14.125 20.398000717163086,-7.059000015258789 20.398000717163086,-7.059000015258789 C20.398000717163086,-7.059000015258789 -12.229999542236328,-7.065000057220459 -12.229999542236328,-7.065000057220459 C-12.229999542236328,-7.065000057220459 -16.312999725341797,-14.13599967956543 -16.312999725341797,-14.13599967956543z"></path></g></g><g transform="matrix(-4.893349647521973,8.475530624389648,-8.475530624389648,-4.893349647521973,300,300)" opacity="1" style="display: block;"><g opacity="1" transform="matrix(1,0,0,1,0,0)"><path fill="url(#__lottie_element_23)" fill-opacity="1" d=" M-16.312999725341797,-14.13599967956543 C-16.312999725341797,-14.13599967956543 -8.152999877929688,-28.257999420166016 -8.152999877929688,-28.257999420166016 C-8.152999877929688,-28.257999420166016 -4.079999923706055,-21.20400047302246 -4.079999923706055,-21.20400047302246 C-4.079999923706055,-21.20400047302246 -8.163000106811523,-14.133000373840332 -8.163000106811523,-14.133000373840332 C-8.163000106811523,-14.133000373840332 24.5,-14.125 24.5,-14.125 C24.5,-14.125 20.398000717163086,-7.059000015258789 20.398000717163086,-7.059000015258789 C20.398000717163086,-7.059000015258789 -12.229999542236328,-7.065000057220459 -12.229999542236328,-7.065000057220459 C-12.229999542236328,-7.065000057220459 -16.312999725341797,-14.13599967956543 -16.312999725341797,-14.13599967956543z"></path></g></g><g transform="matrix(-4.893350124359131,-8.475530624389648,8.475530624389648,-4.893350124359131,300,300)" opacity="1" style="display: block;"><g opacity="1" transform="matrix(1,0,0,1,0,0)"><path fill="url(#__lottie_element_19)" fill-opacity="1" d=" M-12.229999542236328,-7.065000057220459 C-12.229999542236328,-7.065000057220459 -0.004000000189989805,14.12399959564209 -0.004000000189989805,14.12399959564209 C-0.004000000189989805,14.12399959564209 12.232999801635742,-7.059000015258789 12.232999801635742,-7.059000015258789 C12.232999801635742,-7.059000015258789 -12.229999542236328,-7.065000057220459 -12.229999542236328,-7.065000057220459z"></path></g></g><g transform="matrix(-4.893350124359131,-8.475530624389648,8.475530624389648,-4.893350124359131,300,300)" opacity="1" style="display: block;"><g opacity="1" transform="matrix(1,0,0,1,0,0)"><path fill="url(#__lottie_element_15)" fill-opacity="1" d=" M-12.229999542236328,-7.065000057220459 C-12.229999542236328,-7.065000057220459 20.398000717163086,-7.059000015258789 20.398000717163086,-7.059000015258789 C20.398000717163086,-7.059000015258789 20.805999755859375,-6.353000164031982 20.805999755859375,-6.353000164031982 C20.805999755859375,-6.353000164031982 -11.821999549865723,-6.359000205993652 -11.821999549865723,-6.359000205993652 C-11.821999549865723,-6.359000205993652 -12.229999542236328,-7.065000057220459 -12.229999542236328,-7.065000057220459z"></path></g></g><g transform="matrix(9.786700248718262,0,0,9.786700248718262,300,300)" opacity="1" style="display: block;"><g opacity="1" transform="matrix(1,0,0,1,0,0)"><path fill="url(#__lottie_element_11)" fill-opacity="1" d=" M-12.229999542236328,-7.065000057220459 C-12.229999542236328,-7.065000057220459 20.398000717163086,-7.059000015258789 20.398000717163086,-7.059000015258789 C20.398000717163086,-7.059000015258789 20.805999755859375,-6.353000164031982 20.805999755859375,-6.353000164031982 C20.805999755859375,-6.353000164031982 -11.821999549865723,-6.359000205993652 -11.821999549865723,-6.359000205993652 C-11.821999549865723,-6.359000205993652 -12.229999542236328,-7.065000057220459 -12.229999542236328,-7.065000057220459z"></path></g></g><g transform="matrix(-4.893349647521973,8.475530624389648,-8.475530624389648,-4.893349647521973,300,300)" opacity="1" style="display: block;"><g opacity="1" transform="matrix(1,0,0,1,0,0)"><path fill="url(#__lottie_element_7)" fill-opacity="1" d=" M-12.229999542236328,-7.065000057220459 C-12.229999542236328,-7.065000057220459 20.398000717163086,-7.059000015258789 20.398000717163086,-7.059000015258789 C20.398000717163086,-7.059000015258789 20.805999755859375,-6.353000164031982 20.805999755859375,-6.353000164031982 C20.805999755859375,-6.353000164031982 -11.821999549865723,-6.359000205993652 -11.821999549865723,-6.359000205993652 C-11.821999549865723,-6.359000205993652 -12.229999542236328,-7.065000057220459 -12.229999542236328,-7.065000057220459z"></path></g></g></g></svg>
